<svg version="1.1" xmlns="http://www.w3.org/2000/svg" xmlns:xlink="http://www.w3.org/1999/xlink" width="512" height="512" viewBox="0,0,256,256"><g fill="#0bd63b" fill-rule="nonzero" stroke="none" stroke-width="1" stroke-linecap="butt" stroke-linejoin="miter" stroke-miterlimit="10" stroke-dasharray="" stroke-dashoffset="0" font-family="none" font-weight="none" font-size="none" text-anchor="none" style="mix-blend-mode: normal"><g transform="scale(0.5,0.5)"><path d="M349.33,69.33c51.48644,0.15376 93.18624,41.85356 93.34,93.34v186.66c-0.15376,51.48644 -41.85356,93.18624 -93.34,93.34h-186.66c-51.48644,-0.15376 -93.18624,-41.85356 -93.34,-93.34v-186.66c0.15376,-51.48644 41.85356,-93.18624 93.34,-93.34h186.66M349.33,32h-186.66c-71.87,0 -130.67,58.8 -130.67,130.67v186.66c0,71.87 58.8,130.67 130.67,130.67h186.66c71.87,0 130.67,-58.8 130.67,-130.67v-186.66c0,-71.87 -58.8,-130.67 -130.67,-130.67z"></path><path d="M377.33,162.67c-15.46397,0 -28,-12.53603 -28,-28c0,-15.46397 12.53603,-28 28,-28c15.46397,0 28,12.53603 28,28c0.01597,7.43095 -2.92889,14.56214 -8.18337,19.81663c-5.25449,5.25449 -12.38568,8.19935 -19.81663,8.18337z"></path><path d="M256,181.33c41.2391,0 74.67,33.4309 74.67,74.67c0,41.2391 -33.4309,74.67 -74.67,74.67c-41.2391,0 -74.67,-33.4309 -74.67,-74.67c0.04409,-41.22082 33.44918,-74.62591 74.67,-74.67M256,144c-61.85589,0 -112,50.14411 -112,112c0,61.85589 50.14411,112 112,112c61.85589,0 112,-50.14411 112,-112c0,-61.85589 -50.14411,-112 -112,-112z"></path></g></g></svg>